<?xml version="1.0" encoding="UTF-8"?>
<svg version="1.1" viewBox="0 0 2000 2000" width="1280" height="1280" xmlns="http://www.w3.org/2000/svg">
<path transform="translate(1072,35)" d="m0 0 3 1 8 20 13 29 18 42 17 39 13 30 16 37 21 49 13 29 11 26 14 32 16 37 23 53 15 35 18 41 12 28 52 120 29 67 21 49 13 29 11 26 14 32 13 30 16 37 21 49 13 29 15 35 16 37 7-6 4-5 93-93 3-4h2l2-4h2l2-4 73-73 5-6 7-6 2-3h2l2-4h2l2-4h2l2-4 93-93 6-7 4-4h2l2-4 97-97 7-8 31-31h3l1 270 1 221 1 96 1 19v312l-5-3-98-98-3-2v-2l-4-2-54-54-8-7-93-93-8-7-34-34-4-1-2 4-3 1-2 4-90 90-6 7-6 5-7 8-24 24h-2l-1 3-5 5-3 2-96-96-2-1v-2l-4-2v-2l-4-2-47-47h-3l-2 4-6 5-7 8-117 117-6 7-6 5-7 8-75 75-3 4h-2l-2 4-67 67-3 1-1-51-1-196-1-257v-80l-1-168-1-124-1-316-1-227z" fill="#6E6E6E"/>
<path transform="translate(918,34)" d="m0 0h1l2 451 2 497 1 199 1 290v95l-4-2-7-8-23-23-3-2v-2l-4-2-163-163-7-6v-2l-4-2-81-81-8-7-3-4-4 2-28 28-7 8-114 114-4-2-28-28-3-2v-2l-4-2-42-42-8-7-52-52-8-7-4-5-5 1-8 8-5 6-8 7-4 5-4 4h-2l-2 4-116 116-3 4h-2l-2 4h-2l-2 4-137 137-4 5h-2l-1-204-1-430-1-117-1-20v-148l8 6 69 69 6 5v2l4 2 83 83 8 7 72 72 7 6v2l4 2 105 105 6 5v2l4 2v2l4 2 81 81 3 1 1-6 23-54 14-33 13-31 15-35 11-26 9-21 15-36 23-54 14-33 13-31 15-35 41-97 20-47 11-26 13-31 15-35 30-71 14-33 17-40 11-26 16-38 12-28 30-71 14-33 17-40 11-26 10-24z"/>
<path transform="translate(90,1701)" d="m0 0 6 1 21 35 17 28 15 25 17 28 1 2h2l17-29 24-40 14-24 13-22 4-4h22l13 1 1 1v192l-9 1h-32l-1-1-1-114-10 17-9 15-10 17-17 28-10 17h-21l-9-14-34-56-13-21-1 111-12 1h-29l-1-1v-193z" fill="#010101"/>
<path transform="translate(1207,1701)" d="m0 0h35l4 4 16 27 17 28 19 32 13 21 4 7h2l17-29 24-40 14-24 13-22 4-4 35 1 1 1v192l-9 1h-32l-1-1v-114h-2l-2 5-13 22-16 27-24 40h-21l-9-14-34-56-13-21-1 111-12 1h-29l-1-1v-193z" fill="#010101"/>
<path transform="translate(665,1701)" d="m0 0h82l29 1 17 3 15 6 11 8 7 8 5 11 2 10-1 15-5 13-7 9-6 6-5 2-1 2 6 2 11 7 8 8 6 11 3 10v20l-4 12-7 10-9 8-12 6-19 5-7 1-18 1h-101l-1-1v-193zm44 34-1 2 1 44h55l13-4 7-6 3-7v-12l-4-8-5-4-11-4-8-1zm0 79v48h62l12-3 8-5 5-7 1-5v-9l-3-8-8-7-8-3-6-1z" fill="#010101"/>
<path transform="translate(1765,1701)" d="m0 0h33l5 2 11 13 8 10 14 17 27 33 13 16 11 13 8 10 2 2 1-115 1-1 43 1v193l-9 1h-27l-11-12-9-11-14-17-9-11-13-16-14-17-9-11-14-17-5-5 1 7v108l-7 2h-37l-1-1v-193z"/>
<path transform="translate(460,1698)" d="m0 0h19l16 2 14 4 12 5 14 8 13 11 9 10 8 13 6 13 4 15 1 6v27l-3 15-6 16-6 10-9 12-10 10-15 10-15 7-13 4-18 3h-23l-18-3-12-4-17-8-11-8-12-11-9-12-8-15-4-11-3-16v-25l3-15 4-12 8-15 11-14 11-10 14-9 13-6 17-5zm5 38-12 2-13 5-11 8-9 10-8 16-2 8-1 9v11l3 15 5 11 6 9 9 9 12 7 13 4 7 1h13l17-4 11-6 10-8 9-13 5-13 2-11v-15l-3-14-5-12-7-9-8-8-10-6-11-4-13-2z" fill="#010101"/>
<path transform="translate(1525,1701)" d="m0 0h124l22 1v34l-1 1-100 1-1 26v15l90 1v34l-4 1h-85l-1 43v2h105l1 5-1 30-3 1h-146l-1-1v-193z" fill="#010101"/>
<path transform="translate(931,1701)" d="m0 0 44 1v193l-3 1h-41l-1-1v-193z"/>
</svg>
